<?xml version="1.0" encoding="utf-8"?>
<!-- Generator: Adobe Illustrator 24.1.1, SVG Export Plug-In . SVG Version: 6.00 Build 0)  -->
<svg version="1.1" id="Слой_1" xmlns="http://www.w3.org/2000/svg" xmlns:xlink="http://www.w3.org/1999/xlink" x="0px" y="0px"
	 viewBox="0 0 409.6 409.6" style="enable-background:new 0 0 409.6 409.6;" xml:space="preserve">
<g>
	<path d="M0,336.9c7.4,0.1,14.9,0.4,22.3,0.2c1.2,0,2.7-1.8,3.6-3.1C47,299.4,68,264.8,89.1,230.1c33.8-55.5,67.5-111.1,101.2-166.7
		c1.3-2.1,2-4.9,2-7.4c0.3-8,0.1-15.9,0.1-24.2c8,0,15.7,0,24,0c0,8.3-0.1,16.5,0.1,24.7c0.1,2.2,0.7,4.8,1.9,6.7
		c54.7,90.2,109.6,180.4,164.4,270.6c1.6,2.6,3.2,3.7,6.3,3.6c6.5-0.3,13-0.1,19.7-0.1c0,14,0,27.5,0,41.5c-1.9,0-3.7,0-5.5,0
		c-132.4,0-264.8,0-397.1,0c-2,0-4,0.2-5.9,0.4C0,365.2,0,351,0,336.9z M204.4,86.5c-54.5,89.6-108.6,178.6-163,268.2
		c2,0.1,3.2,0.2,4.4,0.2c25,0,50-0.1,75,0.1c3.1,0,4.7-1.1,6.3-3.6c24.8-41,49.8-82,74.7-123c0.7-1.2,1.5-2.4,2.6-4
		c1,1.6,1.8,2.7,2.6,3.9c24.9,41,49.9,82,74.7,123c1.5,2.5,3.1,3.7,6.2,3.7c25-0.1,50-0.1,75-0.1c1.3,0,2.5-0.1,4.4-0.2
		C312.9,265.1,258.9,176.1,204.4,86.5z M255.8,354.7c-17.3-28.4-34.2-56.2-51.4-84.5c-17.3,28.5-34.2,56.3-51.3,84.5
		C187.5,354.7,221.2,354.7,255.8,354.7z"/>
</g>
</svg>
